HIERARCHY
ROOT Hips
{
	OFFSET 0.00000 0.00000 0.00000
	CHANNELS 6 Xposition Yposition Zposition Yrotation Zrotation Xrotation 
	JOINT Lumbar
	{
		OFFSET 0 0 0
		CHANNELS 3 Zrotation Xrotation Yrotation
		JOINT Neck
		{
			OFFSET 0.00 0.2701 0.00
			CHANNELS 3 Zrotation Xrotation Yrotation
			End Site
			{
				OFFSET 0.00 0.1379 0.00
			}
		}
		JOINT RightShoulder
		{
			OFFSET 0.0119 0.2289 0.1181
			CHANNELS 3 Zrotation Xrotation Yrotation
			JOINT RightElbow
			{
				OFFSET 0.00 -0.1475 0.00
				CHANNELS 2 Zrotation Yrotation
				JOINT RightWrist
				{
					OFFSET 0.00 -0.1605 0.00
					CHANNELS 2 Zrotation Xrotation
					End Site
					{
						OFFSET 0.0040 -0.1068 0.0006
					}
				}
			}
		}
		JOINT LeftShoulder
		{
			OFFSET 0.0119 0.2289 -0.1181
			CHANNELS 3 Zrotation Xrotation Yrotation
			JOINT LeftElbow
			{
				OFFSET 0.00 -0.1475 0.00
				CHANNELS 2 Zrotation Yrotation
				JOINT LeftWrist
				{
					OFFSET 0.00 -0.1605 0.00
					CHANNELS 2 Zrotation Xrotation
					End Site
					{
						OFFSET 0.0040 -0.1068 -0.0006
					}
				}
			}
		}
	}
	JOINT RightHip
	{
		OFFSET 0.0316 -0.0424 0.0458
		CHANNELS 3 Zrotation Xrotation Yrotation
		JOINT RightKnee
		{
			OFFSET 0.00 -0.2438 0.00
			CHANNELS 1 Zrotation
			JOINT RightAnkle
			{
				OFFSET 0.00 -0.2449 0.00
				CHANNELS 3 Zrotation Xrotation Yrotation
				End Site
				{
					OFFSET 0.1237 -0.0542 0.0051
				}
			}
		}
	}
	JOINT LeftHip
	{
		OFFSET 0.0316 -0.0424 -0.0458
		CHANNELS 3 Zrotation Xrotation Yrotation
		JOINT LeftKnee
		{
			OFFSET 0.00 -0.2438 0.00
			CHANNELS 1 Zrotation
			JOINT LeftAnkle
			{
				OFFSET 0.00 -0.2449 0.00
				CHANNELS 3 Zrotation Xrotation Yrotation
				End Site
				{
					OFFSET 0.1237 -0.0542 -0.0051
				}
			}
		}
	}
}
MOTION
Frames: 30
Frame Time: 0.02
0.671 0.07779 -0.7044 376.61662 -29.88467 -0.19451 0.9635 13.15218 -8.89815 -42.65389 -17.41486 -0.83079 19.70983 -26.42555 13.73622 59.07042 47.14184 8.85456 -13.01344 20.9312 23.30802 -18.67955 21.55401 -82.54789 1.08501 5.72659 76.34517 -16.71306 9.63696 -61.81277 -7.53761 -4.84328 -3.25838 75.85468 7.04693 12.79795 -68.83994 -6.36858 4.23288 2.92852
0.66684 0.07063 -0.70161 377.40906 -29.89349 -0.54429 0.22841 12.74832 -8.2229 -43.3358 -16.191 -0.83079 19.66688 -25.91316 13.5489 57.36264 45.20393 9.64998 -13.18841 20.74012 23.54331 -16.29243 21.142 -82.56013 0.61622 5.72593 78.3092 -17.1232 9.43268 -64.5119 -7.46035 -4.82818 -3.24612 78.0755 7.38205 12.38958 -71.31091 -6.28946 4.17817 2.88295
0.66285 0.06376 -0.69869 378.12061 -29.94469 -0.836 -0.40572 12.2933 -7.51874 -44.05563 -15.14122 -0.83079 19.47422 -25.49602 13.18744 55.47868 44.55141 10.19867 -13.05498 20.53974 23.7709 -13.82124 20.71092 -82.58179 0.24107 5.66056 80.26837 -17.80088 8.79277 -66.93853 -7.3603 -4.75202 -3.19916 80.24405 7.52756 11.78059 -73.50761 -6.2701 4.16314 2.85536
0.65881 0.05673 -0.69584 378.87096 -29.94541 -1.15195 -1.0852 11.86789 -6.83654 -44.7621 -14.01844 -0.83079 19.30837 -25.04047 12.88398 53.70178 43.41898 10.82122 -13.07029 20.32626 23.99482 -11.41773 20.30255 -82.5982 -0.16837 5.6187 82.18802 -18.3229 8.40822 -69.48525 -7.27843 -4.70958 -3.17171 82.40299 7.74682 11.26195 -75.82906 -6.22344 4.12981 2.82008
0.65465 0.0498 -0.69291 379.61528 -30.07852 -1.47951 -1.76768 11.41297 -6.1178 -45.45113 -12.85665 -0.83079 19.31173 -24.56464 12.66555 51.79424 41.81283 11.60745 -13.05568 20.1843 24.25054 -8.8617 19.82359 -82.61776 -0.62836 5.6014 84.28172 -18.97851 7.79945 -72.04956 -7.17126 -4.64701 -3.13173 84.70685 8.02248 10.75094 -78.1566 -6.17658 4.0965 2.78228
0.65078 0.04274 -0.69013 380.35009 -29.94334 -1.76849 -2.41793 11.00801 -5.46807 -46.1855 -11.82157 -0.83079 18.9297 -24.15199 12.23123 50.11897 41.50164 11.99665 -13.02673 19.89006 24.43613 -6.61579 19.49284 -82.63323 -0.95529 5.52092 86.00962 -19.4258 7.54268 -74.50967 -7.10792 -4.60952 -3.1081 86.69094 8.13711 10.17689 -80.40231 -6.14462 4.07287 2.75409
0.64763 0.03522 -0.68776 381.10122 -29.08574 -1.96014 -3.02479 10.75817 -5.01548 -47.04113 -11.10639 -0.83079 17.51005 -23.91024 11.23101 49.18314 44.57646 11.30829 -13.04537 19.19877 24.44734 -5.22722 19.56032 -82.63752 -0.93284 5.24348 86.76291 -19.20179 8.42223 -76.77368 -7.17711 -4.66098 -3.14115 87.85141 7.81547 9.45166 -82.5059 -6.13956 4.06795 2.74933
0.64477 0.02757 -0.68556 381.84108 -27.95141 -2.11526 -3.59875 10.55988 -4.63336 -47.94042 -10.51275 -0.83079 15.71004 -23.72542 10.0221 48.4803 48.89365 10.23545 -13.05715 18.35119 24.38444 -4.16093 19.78266 -82.63766 -0.77925 4.91234 87.14155 -18.76546 9.65866 -78.93649 -7.28911 -4.73824 -3.19085 88.68206 7.34375 8.67361 -84.53168 -6.14753 4.07135 2.75351
0.6418 0.01998 -0.68329 382.57134 -26.92548 -2.29026 -4.17453 10.33546 -4.21916 -48.81632 -9.85683 -0.83079 14.09146 -23.50168 8.91754 47.63746 52.56622 9.36555 -13.06376 17.56168 24.34487 -2.96386 19.94484 -82.63749 -0.68535 4.62921 87.67136 -18.4477 10.69178 -81.13085 -7.3765 -4.79988 -3.23048 89.63471 6.96539 7.93636 -86.58281 -6.14936 4.06994 2.75277
0.63876 0.01235 -0.68095 383.36167 -25.97512 -2.4504 -4.80313 10.12088 -3.80408 -49.70807 -9.23509 -0.83079 12.43185 -23.3359 7.76749 46.93077 56.61905 8.36954 -13.09519 16.82615 24.35119 -1.69769 20.06002 -82.64443 -0.58419 4.24026 88.28586 -18.04676 11.88276 -83.38152 -7.48474 -4.87591 -3.27951 90.70808 6.47685 7.12245 -88.67124 -6.15401 4.07396 2.7561
0.63593 0.00481 -0.67882 384.02437 -24.80005 -2.63239 -5.31408 9.89838 -3.4081 -50.57722 -8.57056 -0.83079 10.76876 -23.06223 6.6639 45.99985 60.16029 7.54622 -13.07665 15.94164 24.24136 -0.65253 20.31394 -82.63855 -0.47305 4.06478 88.62961 -17.76416 12.83631 -85.48835 -7.56029 -4.9289 -3.31341 91.44635 6.18145 6.45683 -90.66142 -6.15533 4.06846 2.75307
0.63356 -0.0026 -0.67719 384.34519 -23.08132 -2.89376 -5.5172 9.64486 -3.04687 -51.3665 -7.74393 -0.83079 9.19418 -22.47192 5.74964 44.38284 61.96221 7.31095 -12.92915 14.68068 23.85531 -0.14739 20.88216 -82.58422 -0.32897 4.44625 88.36404 -17.86783 13.04004 -87.27521 -7.53226 -4.9117 -3.30112 91.39158 6.48379 6.22695 -92.44811 -6.1422 4.03178 2.72831
0.63141 -0.00988 -0.67577 384.53694 -21.14461 -3.17682 -5.60114 9.38136 -2.70305 -52.13116 -6.87255 -0.83079 7.62868 -21.77176 4.88867 42.53669 63.20323 7.26087 -12.73221 13.27623 23.3503 0.1467 21.59115 -82.52819 -0.18992 5.05085 87.83037 -18.09491 12.99599 -88.91207 -7.4705 -4.87079 -3.27329 91.00191 6.9815 6.14675 -94.13062 -6.12542 3.98554 2.69714
0.62918 -0.01712 -0.67428 384.78303 -19.30077 -3.44357 -5.7352 9.12023 -2.35145 -52.91321 -6.02931 -0.83079 6.05694 -21.12419 3.99726 40.80065 64.71093 7.11593 -12.55406 11.93921 22.88215 0.54361 22.25537 -82.47138 -0.06957 5.58663 87.38873 -18.25954 13.07202 -90.58496 -7.42609 -4.84114 -3.25297 90.73156 7.37244 5.99012 -95.83054 -6.11134 3.94534 2.67015
0.62687 -0.02479 -0.67267 385.04676 -17.4712 -3.7361 -5.88813 8.86938 -2.00033 -53.67658 -5.15474 -0.83079 4.48224 -20.46625 3.12345 39.04013 66.21748 7.00224 -12.38916 10.58581 22.48297 0.90365 22.8415 -82.38624 0.15691 5.99281 87.05936 -18.44488 13.12853 -92.39109 -7.3745 -4.81016 -3.23124 90.58708 7.83369 5.86653 -97.655 -6.0932 3.89835 2.63813
0.62478 -0.03152 -0.67137 385.24343 -15.56657 -3.98073 -5.97011 8.59487 -1.65317 -54.46496 -4.33659 -0.83079 2.91898 -19.80452 2.22998 37.28229 67.57138 6.87288 -12.18735 9.23641 21.91417 1.29023 23.62468 -82.40331 0.14324 6.71024 86.438 -18.61776 13.16246 -93.88382 -7.32943 -4.77618 -3.20865 90.10696 8.1972 5.71097 -99.19509 -6.08265 3.86309 2.61492
0.6232 -0.03574 -0.67087 385.28506 -13.48567 -4.08698 -5.91758 8.2506 -1.2981 -55.39169 -3.6559 -0.83079 1.40451 -19.14684 1.25873 35.51062 68.67088 6.65595 -11.87693 7.91717 20.89685 1.83711 24.89301 -82.31285 -0.3888 8.34007 85.07262 -18.7389 13.19107 -94.56235 -7.30924 -4.73784 -3.18647 88.76937 8.24127 5.42578 -99.98683 -6.09229 3.86265 2.61783
0.62183 -0.039 -0.67067 385.26394 -11.34279 -4.14476 -5.79174 7.88398 -0.94922 -56.33209 -3.03872 -0.83079 -0.09946 -18.49159 0.27021 33.76398 69.61794 6.42018 -11.5349 6.61039 19.71624 2.41111 26.35962 -82.38584 -1.18564 10.25613 83.42586 -18.84225 13.20393 -94.92863 -7.29676 -4.69746 -3.16404 87.11039 8.18149 5.10425 -100.49446 -6.10997 3.87425 2.62973
0.62039 -0.04265 -0.67034 385.2726 -9.24374 -4.22531 -5.67865 7.53173 -0.6061 -57.22488 -2.41062 -0.83079 -1.62027 -17.84242 -0.70413 32.05397 70.61663 6.1924 -11.21942 5.30961 18.61532 2.95347 27.74945 -82.65562 -1.96133 11.97028 81.9111 -18.94587 13.22529 -95.42873 -7.28151 -4.65917 -3.14237 85.60747 8.17099 4.80296 -101.12487 -6.12496 3.88029 2.63735
0.61886 -0.04647 -0.67002 385.27159 -7.06884 -4.30295 -5.64883 7.16104 -0.22555 -58.29285 -1.7039 -0.83079 -3.09408 -17.15721 -1.70889 30.12879 71.69649 5.96692 -10.84975 3.95577 17.48212 3.57747 29.0838 -81.83169 -2.33547 13.99341 80.36641 -19.08509 13.23467 -95.95709 -7.26226 -4.61538 -3.11759 84.04712 8.15782 4.49183 -101.77759 -6.13565 3.88652 2.64565
0.61757 -0.04971 -0.66974 385.27731 -5.0425 -4.37549 -5.42892 6.82398 0.07345 -58.99796 -1.17829 -0.83079 -4.65832 -16.55148 -2.64828 28.66652 72.54631 5.7377 -10.58738 2.71566 16.38512 4.03102 30.58422 -83.26097 -3.58734 15.44059 78.82442 -19.14632 13.26581 -96.35512 -7.2533 -4.5826 -3.09925 82.5386 8.12376 4.18973 -102.31869 -6.1574 3.89516 2.65466
0.61686 -0.05161 -0.6695 385.31862 -3.42281 -4.43991 -4.71027 6.58167 0.16917 -58.71045 -1.12313 -0.83079 -6.5153 -16.14522 -3.4585 28.42846 73.07694 5.43458 -10.61822 1.80302 15.37723 4.08986 32.4468 -91.421 -7.38176 15.2041 77.33003 -18.97874 13.38451 -96.4637 -7.27363 -4.58312 -3.10017 81.21913 8.05114 3.92889 -102.61312 -6.20663 3.90904 2.66417
0.61638 -0.05296 -0.66927 385.36884 -1.95956 -4.50161 -3.80258 6.37462 0.17939 -58.055 -1.25103 -0.83079 -8.45445 -15.82347 -4.19068 28.66604 73.33567 5.13992 -10.7604 1.00305 14.42244 3.96109 34.47654 -101.74164 -12.01511 14.38131 75.85523 -18.73566 13.52279 -96.45362 -7.30375 -4.59444 -3.10738 79.97111 7.96186 3.67654 -102.80696 -6.26702 3.92463 2.67396
0.61581 -0.05456 -0.66903 385.41496 -0.43788 -4.56859 -2.97582 6.15392 0.21543 -57.55984 -1.30437 -0.83079 -10.33157 -15.47577 -4.9243 28.71774 73.53404 4.8855 -10.85892 0.14016 13.47609 3.86615 36.46211 -110.71177 -16.14522 13.8411 74.39121 -18.53861 13.63738 -96.50271 -7.32765 -4.59936 -3.11084 78.7131 7.88264 3.41426 -103.05268 -6.32296 3.93856 2.68323
0.61522 -0.05612 -0.66885 385.46046 1.14027 -4.61781 -2.16472 5.9227 0.30603 -57.0945 -1.32282 -0.83079 -12.31936 -15.07374 -5.80837 28.64012 74.48795 4.44546 -10.92698 -0.67699 12.38261 3.99242 38.32592 -121.23918 -20.80359 13.24303 72.83245 -18.29291 13.8123 -96.51927 -7.35905 -4.61054 -3.11805 77.34729 7.78709 3.17519 -103.2627 -6.37626 3.95689 2.69458
0.6147 -0.05765 -0.66854 385.50842 2.56192 -4.70275 -1.28047 5.72169 0.26307 -56.47932 -1.4574 -0.83079 -14.08774 -14.80712 -6.35253 28.94729 73.82486 4.39297 -11.08538 -1.55769 11.61515 3.60895 40.47358 -129.03975 -24.55238 12.62236 71.48142 -18.12914 13.86823 -96.57875 -7.37734 -4.61126 -3.11896 76.22905 7.72584 2.89183 -103.52651 -6.43797 3.96597 2.7014
0.61434 -0.05925 -0.66782 385.57678 3.5957 -4.89798 -0.21153 5.59926 -0.13074 -55.54144 -1.86148 -0.83079 -15.30314 -14.87539 -6.04326 30.1792 68.63014 5.40581 -11.46416 -2.6867 11.69518 1.90044 43.42221 -128.73254 -25.62677 12.08223 70.68465 -18.22427 13.57574 -96.79384 -7.35456 -4.58055 -3.10086 75.76372 7.73793 2.47037 -103.96804 -6.51674 3.95231 2.69713
0.61403 -0.06083 -0.66696 385.64464 4.47537 -5.12749 0.9189 5.50576 -0.65568 -54.46504 -2.37733 -0.83079 -16.28121 -15.08036 -5.38208 31.78684 61.86512 6.79915 -11.92914 -3.87631 12.10971 -0.32021 46.63907 -125.61711 -25.74824 11.5386 70.10096 -18.40187 13.1656 -97.0563 -7.31867 -4.53893 -3.07622 75.54936 7.78993 2.00667 -104.46759 -6.604 3.9288 2.68807
0.61367 -0.06241 -0.66616 385.70281 5.42205 -5.33427 2.00158 5.39622 -1.11826 -53.4515 -2.8454 -0.83079 -17.32025 -15.23491 -4.83873 33.23519 55.87918 8.03262 -12.3578 -5.00709 12.39804 -2.33224 49.69382 -123.81612 -26.27583 10.99494 69.43007 -18.53248 12.81953 -97.29342 -7.29043 -4.50227 -3.05463 75.23023 7.84137 1.57164 -104.93922 -6.6898 3.90742 2.68009
0.61341 -0.06401 -0.66538 385.80337 6.37839 -5.57092 3.17378 5.29874 -1.59439 -52.42616 -3.30571 -0.83079 -18.56053 -15.34339 -4.47081 34.64775 49.51708 9.2516 -12.78395 -6.2613 12.57922 -4.25447 52.92357 -121.92019 -26.94368 10.4363 68.71684 -18.7006 12.43001 -97.54234 -7.2555 -4.466 -3.03294 74.87354 7.81972 1.09739 -105.41441 -6.7666 3.8953 2.67641
